<?xml version="1.0" encoding="UTF-8"?> <svg xmlns="http://www.w3.org/2000/svg" id="Flat" height="512" viewBox="0 0 512 512" width="512"> <g> <path d="m48 344v80h128l16 8h128l16-8h128v-80z" fill="#b3e9ff"></path> <path d="m468 456h-424a20 20 0 0 1 -20-20v-20h152l16 8h128l16-8h152v20a20 20 0 0 1 -20 20z" fill="#25b1fa"></path> <g> <path d="m24 48h464v304h-464z" fill="#faa231"></path> <path d="m456 296v-192a24 24 0 0 1 -24-24h-352a24 24 0 0 1 -24 24v192a24 24 0 0 1 24 24h352a24 24 0 0 1 24-24z" fill="#feecd6"></path> <g> <g> <path d="m288 392-32-16-32 16v-88h64z" fill="#d3463d"></path> <path d="m310 288-15.184 16.075-.632 22.109-22.109.632-16.075 15.184-16.075-15.184-22.109-.632-.632-22.109-15.184-16.075 15.184-16.075.632-22.109 22.109-.632 16.075-15.184 16.075 15.184 22.109.632.632 22.109z" fill="#fa5d3f"></path> </g> <path d="m248 280h16v16h-16z" fill="#d3463d"></path> </g> <path d="m216 168a64.715 64.715 0 0 0 -40 0 84.733 84.733 0 0 1 4.913-17.745 90.961 90.961 0 0 0 -14.8-12.689 96.722 96.722 0 0 1 59.778 0q-4.947 15.218-9.891 30.434z" fill="#d3463d"></path> <path d="m296 168a64.715 64.715 0 0 1 40 0 84.733 84.733 0 0 0 -4.913-17.745 90.961 90.961 0 0 1 14.8-12.689 96.722 96.722 0 0 0 -59.778 0q4.948 15.218 9.891 30.434z" fill="#d3463d"></path> <path d="m304 152a155.325 155.325 0 0 0 -96 0q-4.944-15.218-9.889-30.434a187.332 187.332 0 0 1 115.778 0q-4.945 15.218-9.889 30.434z" fill="#fa5d3f"></path> <g fill="#faa231"> <path d="m88 224h32v16h-32z"></path> <path d="m136 224h56v16h-56z"></path> <path d="m88 192h72v16h-72z"></path> </g> <path d="m88 256h80v16h-80z" fill="#faa231"></path> <g> <g> <path d="m424 232h-32" fill="#fff"></path> <path d="m392 224h32v16h-32z" fill="#faa231"></path> </g> <g> <path d="m376 232h-56" fill="#fff"></path> <path d="m320 224h56v16h-56z" fill="#faa231"></path> </g> <g> <path d="m424 200h-72" fill="#fff"></path> <path d="m352 192h72v16h-72z" fill="#faa231"></path> </g> </g> <g fill="#faa231"> <path d="m344 256h80v16h-80z"></path> <path d="m192 192h128v16h-128z"></path> <path d="m392 112h24v16h-24z"></path> <path d="m96 112h24v16h-24z"></path> </g> </g> </g> </svg> 