<?xml version="1.0" encoding="utf-8"?>
<svg version="1.1" id="Слой_1" x="0px" y="0px" viewBox="0 0 841.9 595.3" style="enable-background:new 0 0 841.9 595.3;" xmlns="http://www.w3.org/2000/svg">
  <style type="text/css">
	.st0{fill:#52AC62;}
</style>
  <g style="" transform="matrix(1.49772, 0, 0, 1.316756, -210.463455, -98.729858)">
    <path class="st0" d="M341.3,214.7c0-34.3,28.5-62.5,62.8-62.4c34.4,0.1,62.5,28.7,62.4,63.7c-0.1,33.9-29,62.5-63.2,62.4 C368.6,278.2,341.3,250.2,341.3,214.7z M403.9,170.9c-23.9,0-43.7,19.8-43.8,43.5c0,25.4,19.1,45.2,43.9,45.3 c24.8,0.1,44.9-19.3,45.1-43.6C449.2,191.6,428.5,170.9,403.9,170.9z"/>
    <path class="st0" d="M449.2,290.8c3.3,0.2,5.9,2,7.6,5c5.3,9.8,10.7,19.6,15.8,29.5c2.3,4.5,0.5,9.9-3.8,12 c-4.5,2.3-9.3,1.7-11.9-2.7c-6-10.3-11.8-20.9-16.9-31.7C437.4,297.3,442.6,290.8,449.2,290.8z"/>
    <path class="st0" d="M330.7,166.6c-0.1,6.7-7.4,11.5-13.4,8.3c-10.2-5.5-20.1-11.6-29.8-17.9c-4.2-2.7-4.9-8.8-2.1-12.5 c3.1-4.2,7.3-5.5,11.8-2.9c9.9,5.7,19.6,11.7,29.3,17.7C329.4,160.8,330.6,163.7,330.7,166.6z"/>
    <path class="st0" d="M290.7,285.7c-2.9-0.1-5.9-1.5-7.6-5c-1.7-3.4-1.3-6.7,1.3-9.6c1.6-1.9,3.6-3.3,5.8-4.4 c8.3-4.3,16.5-8.9,24.9-13c5.7-2.8,11.7-1,13.8,3.6c2.2,4.8,0,10-5.7,13.1c-8.4,4.6-16.9,8.9-25.4,13.4 C295.9,284.8,293.8,285.8,290.7,285.7z"/>
    <path class="st0" d="M341.3,94.8c3.1,0.2,6,1.9,7.8,5.1c5,8.6,10.1,17.2,14.9,25.9c3.4,6.2,2.2,11.6-2.6,14.4 c-4.5,2.7-10.2,0.5-13.7-5.4c-4.8-8.2-9.6-16.5-14.2-24.9C329.3,102.4,333.1,94.7,341.3,94.8z"/>
    <path class="st0" d="M362.6,294.6c0,3.5-0.7,5.6-1.8,7.5c-5.1,8.3-10.1,16.8-15.3,25c-3.6,5.7-9.1,7.6-13.4,5.3 c-4.5-2.5-5.7-8.6-2.3-14.6c5-8.9,10.3-17.5,15.7-26.2c2.7-4.3,6.7-6,11.6-4.5C361.1,288.4,362.4,291.8,362.6,294.6z"/>
    <path class="st0" d="M412.8,103c0,5.1,0.1,10.2,0,15.3c-0.1,5.3-2.4,9.1-8.1,9.6c-5.1,0.5-9.4-2.8-9.9-8.6c-1-11-0.9-22,0-33 c0.5-5.9,4.6-9.2,9.8-8.7c5.7,0.5,8.1,4.1,8.3,9.5C412.8,92.4,412.8,97.7,412.8,103z"/>
    <path class="st0" d="M484.5,108.7c-0.4,1.1-0.7,3-1.6,4.5c-5.8,9.1-11.6,18.2-17.8,27c-3.4,4.8-8.3,5.6-12.8,2.8 c-4.5-2.8-5.8-7.1-2.7-12.1c5.8-9.3,11.9-18.4,18.1-27.5c2.5-3.6,6.1-4.6,10.2-3.3C481.7,101.2,484,103.9,484.5,108.7z"/>
    <path class="st0" d="M391.8,328.3c0-5.3-0.2-10.6,0.1-15.9c0.4-6.9,4.5-11.2,9.9-11c5.2,0.2,8.6,4.5,8.5,11.3 c-0.2,10,0.3,19.9-1,29.8c-0.8,6.3-4.2,10-9.4,9.8c-5.1-0.1-8.2-4.1-8.3-10.7c-0.1-4.5,0-8.9,0-13.4 C391.6,328.3,391.7,328.3,391.8,328.3z"/>
    <path class="st0" d="M291.5,222c-5.3,0-10.6,0.2-15.9-0.1c-6-0.3-8.9-3.4-8.8-8.7c0.1-5.4,3.5-9.4,9.1-9.6 c11.4-0.4,22.8,0,34.2,1.3c5,0.5,7.4,4,7.3,9c-0.1,4.9-3.8,8.4-9.3,8.7c-2.8,0.1-5.7-0.2-8.5-0.3c-2.6-0.1-5.3,0-7.9,0 C291.5,222.2,291.5,222.1,291.5,222z"/>
  </g>
  <path class="st0" d="M 476.54 581.243 C 487.174 546.349 508.742 517.381 539.145 493.416 C 565.356 472.611 595.908 458.521 630.207 450.752 C 633.052 450.094 636.647 449.962 634.7 445.749 C 624.366 421.915 630.357 398.477 637.545 375.171 C 642.788 357.921 648.179 340.671 649.228 322.764 C 651.175 289.977 634.401 263.773 610.137 240.73 C 601.45 232.434 591.864 224.797 582.879 216.765 C 581.53 215.581 578.685 214.658 580.183 212.551 C 581.38 210.84 583.928 211.63 585.875 212.025 C 614.031 217.159 639.043 227.299 658.064 247.05 C 659.562 248.631 661.21 250.079 662.856 251.395 C 663.307 251.791 664.055 252.054 665.403 252.581 C 666.751 249.288 667.949 246.128 669.147 243.1 C 670.495 241.519 671.094 239.677 671.094 237.833 C 671.694 236.911 672.293 236.122 673.041 235.2 C 674.988 233.619 675.738 231.644 676.636 229.538 C 682.777 220.058 688.917 210.708 695.058 201.359 C 696.256 199.647 697.155 196.223 700.3 197.54 C 702.847 198.594 700.449 201.227 699.85 203.071 C 692.961 222.69 687.12 242.573 682.328 262.72 C 681.279 267.328 682.477 269.962 686.521 272.464 C 694.009 276.941 701.498 281.286 710.484 282.998 C 713.78 283.656 714.977 284.71 712.581 287.606 C 692.512 311.308 690.565 338.565 693.41 366.612 C 696.256 395.581 708.836 421.784 724.114 447.066 C 728.158 453.912 728.308 453.912 719.621 453.912 C 714.678 453.912 709.736 454.44 704.943 453.781 C 674.689 450.094 651.025 461.945 629.158 478.009 C 593.812 504.081 572.844 537.922 561.162 576.767 C 560.562 578.477 559.963 580.189 559.365 581.901 C 531.507 583.746 503.948 583.087 476.54 581.243 Z" style=""/>
  <path class="st0" d="M 342.644 533.972 C 360.617 516.985 380.237 501.974 403.003 489.993 C 444.789 467.87 490.02 454.702 538.097 448.514 C 559.814 445.749 581.53 444.433 603.398 444.563 C 605.794 444.563 608.19 444.827 610.586 446.013 C 598.605 447.723 586.473 448.91 574.641 451.016 C 528.362 459.312 486.725 476.166 450.63 503.028 C 428.763 519.224 410.641 538.185 398.51 561.097 C 394.017 565.969 392.369 571.895 389.823 577.557 C 388.624 580.058 387.726 581.77 383.982 581.77 C 359.868 581.637 335.605 581.637 310.594 581.637 C 316.884 563.072 330.063 548.72 342.644 533.972 Z" style=""/>
  <path class="st0" d="M 453.475 447.592 C 453.925 447.592 454.375 447.066 454.824 447.066 C 469.951 446.275 485.077 445.354 500.205 444.563 C 500.804 444.563 501.403 444.563 502.151 444.433 C 504.848 444.301 504.997 447.856 502.452 447.987 C 479.387 449.962 457.37 453.123 435.504 457.731 C 388.624 467.475 344.142 482.487 304.004 506.32 C 273.001 524.228 247.39 546.744 230.465 575.976 C 228.069 580.058 225.523 581.901 219.981 581.77 C 200.211 581.376 180.291 581.637 160.522 581.637 C 152.434 581.637 151.686 580.98 155.879 574.659 C 169.807 553.591 188.678 536.604 210.546 521.858 C 232.412 507.11 256.526 495.654 281.538 485.383 C 334.856 464.843 390.871 453.254 448.683 448.12 C 448.833 448.12 448.983 448.12 449.282 448.12 C 453.176 447.592 448.533 448.251 453.475 447.592 Z" style=""/>
  <path class="st0" d="M 261.168 461.814 C 279.591 458.917 297.863 455.625 316.435 453.387 C 340.847 450.489 365.11 446.803 389.973 446.803 C 399.858 446.803 409.742 445.222 419.777 444.563 C 424.869 444.169 430.111 444.169 435.203 445.091 C 435.354 445.617 435.354 446.275 435.504 446.803 C 409.443 447.723 383.533 450.752 357.621 454.045 C 327.817 457.731 298.761 463.92 270.005 471.822 C 215.338 486.041 163.967 505.925 120.383 539.107 C 106.304 549.772 93.873 561.887 84.438 576.109 C 81.741 580.189 78.746 581.637 73.354 581.506 C 57.928 581.112 42.501 581.376 26.925 581.376 C 24.978 581.376 22.432 582.165 21.383 580.189 C 20.485 578.347 22.282 576.899 23.33 575.449 C 37.858 555.698 57.329 540.293 79.196 527.257 C 122.63 501.052 170.557 483.539 221.03 471.425 C 234.359 468.265 247.689 464.974 261.168 461.814 Z" style=""/>
  <path class="st0" d="M 641.29 172.127 C 641.439 156.457 649.677 146.055 660.76 137.102 C 667.949 131.307 675.588 125.777 682.627 119.984 C 686.222 117.086 688.018 117.877 690.266 121.169 C 698.053 132.625 699.551 145.001 696.106 157.774 C 691.014 176.867 678.733 192.932 666.601 208.864 C 663.606 212.682 660.909 210.576 658.513 208.206 C 647.73 197.409 642.638 184.504 641.29 172.127 Z" style=""/>
  <path class="st0" d="M 813.678 202.413 C 804.691 209.26 799.15 216.239 793.308 223.086 C 781.326 236.781 764.851 241.652 746.279 242.968 C 740.439 243.363 734.448 243.76 728.607 244.548 C 721.118 245.47 713.929 247.05 708.537 252.317 C 707.489 253.371 706.291 254.293 704.493 253.765 C 702.847 253.371 702.996 252.054 703.445 251 C 708.387 234.936 713.181 218.608 731.602 210.05 C 743.135 204.651 756.015 203.071 768.895 202.544 C 782.974 202.017 797.053 202.413 813.678 202.413 Z" style=""/>
  <path class="st0" d="M 613.582 297.086 C 615.08 314.863 604.896 328.425 586.174 337.643 C 578.086 341.594 569.849 345.281 561.761 349.099 C 560.412 349.758 559.065 350.812 557.567 350.021 C 555.919 349.099 557.118 347.65 557.268 346.335 C 558.465 338.039 559.514 329.742 560.713 321.446 C 562.21 310.387 569.1 302.354 579.284 296.166 C 588.421 290.635 598.755 286.948 608.639 282.734 C 612.234 281.154 613.882 281.813 613.732 285.5 C 613.432 288.792 613.582 292.083 613.582 297.086 Z" style=""/>
  <path class="st0" d="M 544.537 284.051 C 531.207 284.182 520.723 279.312 512.786 270.094 C 505.147 261.271 501.403 250.869 496.76 240.861 C 494.962 236.911 498.108 236.517 500.355 237.701 C 522.071 248.498 547.532 250.079 569.849 259.296 C 575.989 261.798 581.53 264.958 586.473 269.04 C 588.421 270.621 590.218 271.936 586.324 273.387 C 572.993 278.521 559.664 284.051 544.537 284.051 Z" style=""/>
  <path class="st0" d="M 562.36 166.201 C 562.81 170.548 560.562 171.073 556.219 170.284 C 544.088 168.045 532.406 164.622 521.622 159.092 C 499.306 147.767 490.17 130.123 489.57 108.265 C 489.57 106.817 488.672 104.973 490.919 104.051 C 493.015 103.261 494.364 104.576 495.412 105.763 C 505.447 116.56 519.226 122.88 532.406 129.859 C 546.484 137.232 558.766 145.923 561.461 161.33 C 561.911 163.042 562.06 164.622 562.36 166.201 Z" style=""/>
  <path class="st0" d="M 739.39 308.016 C 755.416 307.49 767.397 313.547 779.379 319.998 C 792.409 326.977 792.409 326.977 779.529 333.692 C 771.891 337.643 764.552 342.516 755.267 343.569 C 740.139 345.281 729.056 338.565 719.32 329.612 C 704.794 316.048 705.392 314.337 725.461 309.729 C 730.404 308.675 735.496 308.016 739.39 308.016 Z" style=""/>
  <path class="st0" d="M 660.161 110.24 C 659.412 127.358 649.527 140.393 636.048 151.98 C 632.603 155.009 631.105 152.771 629.158 150.138 C 617.626 134.994 619.873 119.984 628.709 104.709 C 632.753 97.861 637.545 91.542 643.237 85.616 C 646.383 82.325 648.779 82.587 651.624 86.011 C 657.465 93.253 660.46 101.286 660.161 110.24 Z" style=""/>
  <path class="st0" d="M 513.385 173.575 C 532.705 173.444 543.788 179.765 550.977 195.302 C 553.673 201.096 555.47 207.284 557.867 213.21 C 559.365 217.029 558.316 218.213 553.673 217.555 C 546.634 216.37 539.444 215.711 532.406 214.394 C 522.82 212.551 516.08 207.284 511.737 199.516 C 507.693 192.273 504.848 184.372 498.408 178.316 C 496.161 176.209 497.658 175.419 500.205 174.761 C 504.698 173.708 509.041 173.575 513.385 173.575 Z" style=""/>
  <path class="st0" d="M 639.792 328.294 C 639.792 347.65 623.617 364.637 602.499 368.06 C 599.503 368.587 596.508 368.85 597.706 364.637 C 603.248 343.569 609.089 322.633 630.506 308.806 C 632.304 307.622 634.101 305.382 636.348 306.173 C 639.043 307.094 637.545 309.729 637.844 311.571 C 638.744 317.497 639.343 323.291 639.792 328.294 Z" style=""/>
  <path class="st0" d="M 605.794 149.611 C 605.644 152.244 605.644 155.14 604.445 157.905 C 600.552 166.991 598.455 166.86 588.72 163.305 C 565.206 154.745 564.307 136.18 561.461 118.272 C 561.012 114.98 563.708 114.453 566.553 116.165 C 572.095 119.325 578.386 120.51 584.526 122.222 C 599.054 125.909 605.644 134.336 605.794 149.611 Z" style=""/>
  <path class="st0" d="M 766.798 155.273 C 758.411 161.856 751.223 167.913 743.734 173.575 C 731.452 182.793 716.475 180.027 702.396 180.159 C 699.551 180.159 699.701 178.447 700.75 176.867 C 709.436 164.622 718.572 152.507 736.844 150.926 C 746.58 150.268 756.015 152.902 766.798 155.273 Z" style=""/>
  <path class="st0" d="M 608.639 182.661 C 608.34 175.814 610.736 169.625 615.978 164.622 C 621.371 159.355 626.612 160.013 630.656 166.071 C 638.744 178.447 641.14 190.957 631.105 203.597 C 627.211 208.469 623.317 208.864 618.524 204.651 C 611.336 198.725 608.489 191.221 608.639 182.661 Z" style=""/>
  <path class="st0" d="M 818.62 301.563 C 805.141 316.97 788.366 318.946 772.041 307.227 C 768.895 304.988 766.2 302.223 762.904 300.115 C 758.561 297.219 758.112 295.507 763.654 293.269 C 771.742 289.977 780.279 288.529 788.965 288.265 C 794.506 288.133 799.599 289.713 803.194 293.796 C 806.937 298.141 811.581 301.563 818.62 301.563 Z" style=""/>
  <path class="st0" d="M 566.703 173.708 C 570.747 174.102 576.888 174.498 582.879 175.419 C 593.812 177.13 604.146 191.483 602.349 201.623 C 601.899 204.125 600.403 204.255 598.155 204.519 C 579.884 205.967 560.713 194.117 555.321 178.052 C 554.122 174.366 555.321 173.575 559.065 173.708 C 561.012 173.708 562.81 173.708 566.703 173.708 Z" style=""/>
  <path class="st0" d="M 789.564 265.353 C 778.631 275.493 767.098 281.55 753.02 283.656 C 744.633 284.973 736.246 284.446 727.859 282.734 C 722.317 281.681 722.317 280.102 725.611 276.677 C 734.598 267.328 746.58 264.037 759.76 263.509 C 769.045 263.115 778.182 264.299 789.564 265.353 Z" style=""/>
  <path class="st0" d="M 571.496 250.737 C 557.418 249.552 548.731 241.125 540.344 232.434 C 538.696 230.854 540.344 230.196 541.691 229.405 C 555.321 221.769 579.284 227.299 587.521 239.808 C 589.468 242.706 588.421 244.285 586.024 246.128 C 581.681 249.288 576.738 250.211 571.496 250.737 Z" style=""/>
  <path class="st0" d="M 723.665 370.957 C 714.678 371.221 703.894 357.921 707.789 350.415 C 708.687 348.835 710.185 348.835 711.683 348.967 C 726.061 349.889 737.294 356.078 746.58 365.295 C 749.276 367.929 746.879 368.719 744.183 368.983 C 737.593 369.772 731.003 370.298 723.665 370.957 Z" style=""/>
</svg>