<?xml version="1.0" encoding="UTF-8"?> <svg xmlns="http://www.w3.org/2000/svg" height="512" viewBox="0 0 58 59" width="512"> <g id="Page-1" fill="none" fill-rule="evenodd"> <g id="038---Cooked-Fish" fill-rule="nonzero"> <path id="Shape" d="m55.64 46-3.45 9.68c-.714014 1.9882461-2.5974373 3.3158396-4.71 3.32h-36.96c-2.11256274-.0041604-3.99598599-1.3317539-4.71-3.32l-1.67-4.68-.71-2-1.07-3 27.015-1z" fill="#f0c419"></path> <path id="Shape" d="m50 50c0 .5522847-.4477153 1-1 1h-44.86l-.71-2h45.57c.5522847 0 1 .4477153 1 1z" fill="#e57e25"></path> <path id="Shape" d="m24 37.6c0 1.5-1.06 2.97-1.19 4.4l-7.393 1.5-5.727-1.5c-1.26-1.06-2.29-2.05-3.05-2.83-.85000258-.874094-.85000258-2.265906 0-3.14 2.54-2.6 8.2-7.67 15.14-9.35.79 3.34 2.22 7.04 2.22 10.92z" fill="#67b9cc"></path> <path id="Shape" d="m51.91 31.68c-.5099673 1.9310507-.7522322 3.9230061-.72 5.92-.0101863 1.4748458.1136561 2.9475669.37 4.4l-14.893 1-13.857-1c.13-1.43.19-2.9.19-4.4.0150067-3.6748249-.3943711-7.3390923-1.22-10.92 1.0530295-.2654465 2.1270222-.4394266 3.21-.52 1.3300533-2.7880466 3.4113649-5.1498679 6.01-6.82.6525639-.402261 1.4617087-.4562013 2.1618931-.1441191s1.2010058.9498932 1.3381069 1.7041191c.297427 2.2862318.1754313 4.6075388-.36 6.85 2.5000126 1.0597287 4.85819 2.4269342 7.02 4.07.0524531.0368333.1025509.0769116.15.12.5420948-.4341551 1.1287094-.8095884 1.75-1.12 1.9897092-.9867898 4.1116716-1.6806378 6.3-2.06.7782554-.1254522 1.5662135.1591048 2.0847378.752866.5185243.5937611.6943772 1.4128621.4652622 2.167134z" fill="#2fa8cc"></path> <circle id="Oval" cx="16" cy="35" fill="#35495e" r="1"></circle> <path id="Shape" d="m44.94 34.91c-.1558172.097819-.336023.1498015-.52.15-.3455015.0006914-.6668845-.1770145-.85-.47-.6027995-1.0013738-1.3663425-1.8966786-2.26-2.65.5420948-.4341551 1.1287094-.8095884 1.75-1.12.8539921.8046837 1.5971739 1.7193689 2.21 2.72.1385718.2252641.1816583.4964642.1197245.7535833s-.223781.4789556-.4497245.6164167z" fill="#2980ba"></path> <path id="Shape" d="m28 37.5c0 1.52-.07 3.02-.21 4.5h-2.01c.1493298-1.4953185.2227574-2.9972461.22-4.5 0-1.48-.07-2.96-.21-4.41-.0489371-.3643304.1059617-.7261371.4033744-.9421861s.689383-.2515036 1.0207356-.0923279c.3313526.1591758.5486587.4873157.56589.854514.15 1.5.22 3.05.22 4.59z" fill="#2980ba"></path> <path id="Shape" d="m32 37.5c0 1.52-.07 3.02-.21 4.5h-2.01c.1493298-1.4953185.2227574-2.9972461.22-4.5 0-1.48-.07-2.96-.21-4.41-.0489371-.3643304.1059617-.7261371.4033744-.9421861s.689383-.2515036 1.0207356-.0923279c.3313526.1591758.5486587.4873157.56589.854514.15 1.5.22 3.05.22 4.59z" fill="#2980ba"></path> <rect id="Rectangle-path" fill="#f29c1f" height="4" rx="1" width="58" y="42"></rect> <g fill="#95a5a5"> <path id="Shape" d="m23 18c-.5522847 0-1-.4477153-1-1-.018388-1.282153.3927733-2.5335902 1.168-3.555.5557913-.6920406.8503274-1.5575947.832-2.445.0183274-.8874053-.2762087-1.75295938-.832-2.445-.7752267-1.02140984-1.186388-2.272847-1.168-3.555 0-.55228475.4477153-1 1-1s1 .44771525 1 1c-.0183274.88740535.2762087 1.75295938.832 2.445.7752267 1.02140984 1.186388 2.272847 1.168 3.555.018388 1.282153-.3927733 2.5335902-1.168 3.555-.5557913.6920406-.8503274 1.5575947-.832 2.445 0 .5522847-.4477153 1-1 1z"></path> <path id="Shape" d="m13 25c-.5522847 0-1-.4477153-1-1-.018388-1.282153.3927733-2.5335902 1.168-3.555 1.1091808-1.4413064 1.1091808-3.4486936 0-4.89-.7752267-1.0214098-1.186388-2.272847-1.168-3.555 0-.5522847.4477153-1 1-1s1 .4477153 1 1c-.0183274.8874053.2762087 1.7529594.832 2.445 1.5573699 2.114156 1.5573699 4.995844 0 7.11-.5557913.6920406-.8503274 1.5575947-.832 2.445 0 .2652165-.1053568.5195704-.2928932.7071068s-.4418903.2928932-.7071068.2928932z"></path> <path id="Shape" d="m47 22c-.5522847 0-1-.4477153-1-1-.018388-1.282153.3927733-2.5335902 1.168-3.555.5557913-.6920406.8503274-1.5575947.832-2.445.0183274-.8874053-.2762087-1.7529594-.832-2.445-.7752267-1.0214098-1.186388-2.272847-1.168-3.555 0-.55228475.4477153-1 1-1s1 .44771525 1 1c-.0183274.88740535.2762087 1.7529594.832 2.445.7752267 1.0214098 1.186388 2.272847 1.168 3.555.018388 1.282153-.3927733 2.5335902-1.168 3.555-.5557913.6920406-.8503274 1.5575947-.832 2.445 0 .5522847-.4477153 1-1 1z"></path> <path id="Shape" d="m34 14c-.5522847 0-1-.4477153-1-1-.018388-1.282153.3927733-2.5335902 1.168-3.555.5557913-.69204062.8503274-1.55759465.832-2.445.0183274-.88740535-.2762087-1.75295938-.832-2.445-.7752267-1.02140984-1.186388-2.272847-1.168-3.555 0-.55228475.4477153-1 1-1s1 .44771525 1 1c-.0183274.88740535.2762087 1.75295938.832 2.445.7752267 1.02140984 1.186388 2.272847 1.168 3.555.018388 1.282153-.3927733 2.53359016-1.168 3.555-.5557913.6920406-.8503274 1.5575947-.832 2.445 0 .5522847-.4477153 1-1 1z"></path> </g> </g> </g> </svg> 