<?xml version="1.0" encoding="UTF-8"?> <svg xmlns="http://www.w3.org/2000/svg" height="512pt" viewBox="0 -26 512.001 512" width="512pt"> <path d="m94.535156 62.230469v-46.359375c0-8.765625 7.105469-15.871094 15.867188-15.871094h162.699218c8.765626 0 15.871094 7.105469 15.871094 15.871094v46.359375l48.738282 57.679687v311.976563c0 15.203125-12.328126 27.53125-27.535157 27.53125h-236.847656c-15.207031 0-27.53125-12.328125-27.53125-27.53125v-311.976563zm0 0" fill="#e9e9ea"></path> <path d="m288.972656 62.230469v-46.359375c0-8.765625-7.105468-15.871094-15.871094-15.871094h-28.46875c8.765626 0 15.871094 7.105469 15.871094 15.871094v46.359375l48.738282 57.679687v311.976563c0 15.203125-12.328126 27.53125-27.53125 27.53125h28.464843c15.207031 0 27.535157-12.328125 27.535157-27.53125v-311.976563zm0 0" fill="#c5c4cc"></path> <path d="m310.175781 459.417969h-236.847656c-15.207031 0-27.53125-12.328125-27.53125-27.535157v-311.972656h291.914063v311.972656c-.003907 15.207032-12.328126 27.535157-27.535157 27.535157zm0 0" fill="#8cbafa"></path> <path d="m337.707031 119.910156h-28.46875v311.972656c0 15.207032-12.324219 27.535157-27.53125 27.535157h28.46875c15.207031 0 27.53125-12.328125 27.53125-27.535157zm0 0" fill="#5692d8"></path> <path d="m273.101562 0h-162.699218c-8.761719 0-15.867188 7.105469-15.867188 15.871094v46.359375h194.433594v-46.359375c0-8.765625-7.101562-15.871094-15.867188-15.871094zm0 0" fill="#8cbafa"></path> <path d="m288.972656 62.230469v-46.359375c0-8.765625-7.105468-15.871094-15.871094-15.871094h-28.464843c8.761719 0 15.867187 7.105469 15.867187 15.871094v46.359375zm0 0" fill="#5692d8"></path> <path d="m359.597656 374.886719c0-29.847657-19.886718-54.042969-44.417968-54.042969-24.527344 0-44.414063 24.195312-44.414063 54.042969 0 29.851562 19.886719 54.046875 44.414063 54.046875 24.53125 0 44.417968-24.195313 44.417968-54.046875zm0 0" fill="#ffd2c0"></path> <path d="m469.878906 374.886719c0-29.847657-19.886718-54.042969-44.417968-54.042969-24.527344 0-44.414063 24.195312-44.414063 54.042969 0 29.851562 19.886719 54.046875 44.414063 54.046875 24.53125 0 44.417968-24.195313 44.417968-54.046875zm0 0" fill="#ffd2c0"></path> <path d="m425.460938 320.839844c-2.402344 0-4.757813.242187-7.054688.6875 15.367188 4.113281 27.113281 26.433594 27.113281 53.359375s-11.746093 49.246093-27.113281 53.359375c2.296875.449218 4.652344.6875 7.054688.6875 24.53125 0 44.417968-24.199219 44.417968-54.046875 0-29.847657-19.886718-54.046875-44.417968-54.046875zm0 0" fill="#edaa9d"></path> <path d="m315.179688 320.839844c-2.402344 0-4.757813.242187-7.054688.6875 15.367188 4.113281 27.113281 26.433594 27.113281 53.359375s-11.746093 49.246093-27.113281 53.359375c2.296875.449218 4.652344.6875 7.054688.6875 24.53125 0 44.417968-24.199219 44.417968-54.046875 0-29.847657-19.886718-54.046875-44.417968-54.046875zm0 0" fill="#edaa9d"></path> <path d="m376.320312 380.414062h-122.28125l20.464844 73.535157c.898438 3.230469 3.84375 5.46875 7.195313 5.46875h66.960937c3.355469 0 6.296875-2.238281 7.195313-5.46875l8.914062-32.023438c.328125-1.1875 1.410157-2.011719 2.644531-2.011719h5.8125c1.234376 0 2.3125.824219 2.644532 2.011719l8.914062 32.023438c.898438 3.230469 3.839844 5.46875 7.195313 5.46875h66.960937c3.351563 0 6.296875-2.238281 7.195313-5.46875l20.464843-73.535157zm0 0" fill="#f9aa4b"></path> <path d="m461.230469 380.414062-20.464844 73.535157c-.898437 3.230469-3.839844 5.46875-7.195313 5.46875h25.371094c3.355469 0 6.296875-2.238281 7.199219-5.46875l20.460937-73.535157zm0 0" fill="#c1762b"></path> <path d="m184.714844 407.128906c0-12.105468 9.253906-22.050781 21.078125-23.140625 1.21875-.109375 2.15625-1.117187 2.15625-2.339843v-24.589844c0-1.171875-.835938-2.210938-1.996094-2.367188-7.191406-.976562-12.734375-7.140625-12.734375-14.597656s5.542969-13.621094 12.734375-14.597656c1.160156-.15625 1.996094-1.195313 1.996094-2.367188v-11.703125c0-5.316406-4.308594-9.628906-9.625-9.628906h-169.839844c-15.730469 0-28.484375 12.753906-28.484375 28.484375v100.652344c0 15.730468 12.753906 28.484375 28.484375 28.484375h169.839844c5.316406 0 9.625-4.308594 9.625-9.628907v-17.179687c0-1.222656-.9375-2.230469-2.15625-2.34375-11.824219-1.085937-21.078125-11.03125-21.078125-23.136719zm0 0" fill="#ffeb96"></path> <path d="m33.050781 430.933594v-100.652344c0-15.730469 12.753907-28.484375 28.484375-28.484375h-33.050781c-15.730469 0-28.484375 12.753906-28.484375 28.484375v100.652344c0 15.730468 12.753906 28.484375 28.484375 28.484375h33.050781c-15.730468 0-28.484375-12.753907-28.484375-28.484375zm0 0" fill="#f9aa4b"></path> <path d="m92.632812 340.972656c0 7.222656-5.855468 13.078125-13.082031 13.078125-7.222656 0-13.078125-5.855469-13.078125-13.078125 0-7.226562 5.855469-13.082031 13.078125-13.082031 7.226563 0 13.082031 5.855469 13.082031 13.082031zm0 0" fill="#ffcd34"></path> <path d="m152.605469 405.367188c0 11.867187-9.617188 21.484374-21.484375 21.484374-11.867188 0-21.484375-9.617187-21.484375-21.484374 0-11.867188 9.617187-21.484376 21.484375-21.484376 11.867187 0 21.484375 9.617188 21.484375 21.484376zm0 0" fill="#ffcd34"></path> <path d="m118.433594 233.328125c48.925781-1.082031 97.847656 50.800781 146.773437 49.421875 3.28125-.09375 5.886719-2.8125 5.886719-6.09375v-53.347656c0-3.441406-2.855469-6.15625-6.296875-6.078125-48.925781 1.082031-97.847656-50.800781-146.773437-49.421875-3.28125.09375-5.882813 2.8125-5.882813 6.09375v53.34375c0 3.445312 2.851563 6.160156 6.292969 6.082031zm0 0" fill="#e9e9ea"></path> <path d="m504.386719 388.023438h-268.132813c-4.203125 0-7.609375-3.40625-7.609375-7.609376 0-4.207031 3.40625-7.613281 7.609375-7.613281h268.136719c4.203125 0 7.609375 3.40625 7.609375 7.613281 0 4.203126-3.40625 7.609376-7.613281 7.609376zm0 0" fill="#c1762b"></path> </svg> 