<svg id="Слой_1" data-name="Слой 1" xmlns="http://www.w3.org/2000/svg" viewBox="0 0 841.89 595.28"><defs><style>.cls-1,.cls-2{fill:#52ac62;}.cls-2{font-size:137.32px;font-family:Gabriela-Regular, Gabriela Regular;}</style></defs><title>Монтажная область 1</title><path class="cls-1" d="M201.26,210.35a31.28,31.28,0,0,1,31.26-31c17.12.06,31.07,14.3,31,31.68,0,16.86-14.44,31.09-31.43,31C214.83,242,201.24,228,201.26,210.35Zm31.15-21.78a21.93,21.93,0,0,0-21.78,21.65c0,12.65,9.52,22.5,21.82,22.55a22,22,0,0,0,22.42-21.68A22.69,22.69,0,0,0,232.41,188.57Z"/><path class="cls-1" d="M255,248.21a4.5,4.5,0,0,1,3.77,2.49c2.66,4.88,5.32,9.75,7.86,14.69a4.41,4.41,0,0,1-1.89,6c-2.26,1.12-4.65.84-5.92-1.33-3-5.13-5.86-10.38-8.39-15.76C249.06,251.45,251.66,248.24,255,248.21Z"/><path class="cls-1" d="M196,186.42a4.64,4.64,0,0,1-6.65,4.12c-5.07-2.73-10-5.79-14.82-8.93a4.46,4.46,0,0,1-1-6.24c1.53-2.07,3.64-2.72,5.89-1.43,4.91,2.83,9.74,5.8,14.56,8.79A4.42,4.42,0,0,1,196,186.42Z"/><path class="cls-1" d="M176.08,245.7a4.28,4.28,0,0,1-3.79-2.49,4.08,4.08,0,0,1,.65-4.8,9.58,9.58,0,0,1,2.88-2.18c4.13-2.16,8.2-4.42,12.39-6.46,2.84-1.38,5.83-.48,6.88,1.78s0,5-2.83,6.53c-4.18,2.27-8.41,4.45-12.62,6.66A6.85,6.85,0,0,1,176.08,245.7Z"/><path class="cls-1" d="M201.25,150.72a4.75,4.75,0,0,1,3.89,2.54c2.49,4.27,5,8.53,7.39,12.88,1.67,3.06,1.08,5.78-1.3,7.18s-5.09.27-6.81-2.67c-2.41-4.09-4.8-8.2-7.07-12.37C195.3,154.52,197.19,150.65,201.25,150.72Z"/><path class="cls-1" d="M211.85,250.14a6.5,6.5,0,0,1-.92,3.74c-2.53,4.15-5,8.34-7.62,12.44-1.8,2.81-4.53,3.8-6.65,2.63s-2.85-4.26-1.14-7.28c2.5-4.41,5.15-8.73,7.82-13a4.71,4.71,0,0,1,5.77-2.22A3.9,3.9,0,0,1,211.85,250.14Z"/><path class="cls-1" d="M236.81,154.81c0,2.53,0,5.07,0,7.6s-1.19,4.51-4,4.8a4.39,4.39,0,0,1-4.92-4.3,96.58,96.58,0,0,1,0-16.4c.24-3,2.29-4.59,4.86-4.35,2.84.26,4.05,2.06,4.11,4.74S236.81,152.17,236.81,154.81Z"/><path class="cls-1" d="M272.51,157.62a9.68,9.68,0,0,1-.81,2.25c-2.9,4.51-5.78,9-8.85,13.42a4.41,4.41,0,0,1-6.38,1.37c-2.23-1.38-2.86-3.55-1.34-6,2.88-4.64,5.94-9.17,9-13.69a4.19,4.19,0,0,1,5.1-1.64A4.54,4.54,0,0,1,272.51,157.62Z"/><path class="cls-1" d="M226.37,266.9c0-2.63-.12-5.27,0-7.89.19-3.41,2.24-5.56,4.93-5.45s4.29,2.22,4.23,5.61c-.09,4.95.15,9.91-.51,14.85-.42,3.13-2.07,5-4.68,4.88s-4.08-2-4.12-5.32c0-2.23,0-4.45,0-6.68Z"/><path class="cls-1" d="M176.49,214c-2.64,0-5.28.12-7.91,0-3-.17-4.42-1.69-4.39-4.34a4.5,4.5,0,0,1,4.51-4.76,116.16,116.16,0,0,1,17,.62c2.48.27,3.68,2,3.63,4.47s-1.92,4.18-4.63,4.31c-1.41.07-2.83-.1-4.25-.13s-2.63,0-3.95,0Z"/><text class="cls-2" transform="translate(400.67 361.1)">ИРИЙ</text><path class="cls-1" d="M259.64,360.44c3.52-13.19,10.71-24.12,20.78-33.18a71.52,71.52,0,0,1,30.22-16.12c.93-.24,2.12-.28,1.5-1.91-3.42-9-1.44-17.84.94-26.65,1.77-6.51,3.51-13,3.88-19.81.66-12.41-4.91-22.27-13-31-2.9-3.14-6.06-6-9.08-9.07-.43-.44-1.39-.81-.91-1.59.4-.63,1.27-.33,1.91-.19,9.37,1.92,17.68,5.75,24,13.25a20.9,20.9,0,0,0,1.6,1.66,4.64,4.64,0,0,0,.86.46l1.23-3.6a3.57,3.57,0,0,0,.66-2l.63-1A4.86,4.86,0,0,0,326,227.5c2-3.56,4.06-7.13,6.14-10.67.39-.66.7-1.94,1.74-1.43.84.41.05,1.42-.15,2.07-2.3,7.42-4.22,14.94-5.81,22.55a3,3,0,0,0,1.41,3.66c2.48,1.7,4.95,3.35,8,4,1.11.23,1.49.66.69,1.73-6.69,9-7.3,19.26-6.39,29.85.95,10.94,5.14,20.83,10.19,30.41,1.36,2.58,1.39,2.57-1.49,2.58a33,33,0,0,1-4.87,0c-10-1.4-17.9,3.07-25.17,9.16-11.75,9.87-18.72,22.66-22.6,37.3-.18.66-.39,1.31-.58,2A168.85,168.85,0,0,1,259.64,360.44Z"/><path class="cls-1" d="M215.17,342.62A92.76,92.76,0,0,1,235.22,326a119.11,119.11,0,0,1,44.88-15.67,147.32,147.32,0,0,1,21.71-1.5,4.52,4.52,0,0,1,2.36.55c-4,.63-8,1.11-12,1.91A90.59,90.59,0,0,0,251,330.93a64.6,64.6,0,0,0-17.33,21.95c-1.48,1.82-2,4.09-2.88,6.2-.37.92-.72,1.58-1.95,1.57-8-.06-16.05,0-24.37,0C206.61,353.58,211,348.17,215.17,342.62Z"/><path class="cls-1" d="M252,310c.16,0,.27-.19.44-.2l15.09-.94.62,0a.69.69,0,0,1,.09,1.37A167.3,167.3,0,0,0,246,313.82c-15.59,3.66-30.33,9.35-43.66,18.36C192.07,339,183.59,347.43,178,358.51a3.33,3.33,0,0,1-3.49,2.18c-6.58-.13-13.17,0-19.76-.05-2.71,0-2.91-.26-1.52-2.65a69.1,69.1,0,0,1,18.18-19.94,126.87,126.87,0,0,1,23.56-13.77c17.73-7.77,36.31-12.14,55.51-14.09a1.09,1.09,0,0,0,.18,0C251.89,310,250.35,310.2,252,310Z"/><path class="cls-1" d="M188.1,315.34c6.12-1.08,12.21-2.35,18.37-3.17,8.1-1.08,16.17-2.48,24.4-2.47,3.3,0,6.59-.6,9.89-.84a17.81,17.81,0,0,1,5.1.19c0,.21.07.43.11.64-8.68.36-17.28,1.5-25.87,2.72A184.36,184.36,0,0,0,191,319.12c-18.15,5.38-35.23,12.87-49.68,25.42a55.8,55.8,0,0,0-11.94,14,3.6,3.6,0,0,1-3.67,2.06c-5.14-.13-10.28,0-15.41,0-.66,0-1.51.31-1.86-.44s.32-1.26.67-1.8c4.83-7.44,11.31-13.25,18.53-18.22,14.41-9.9,30.33-16.51,47.13-21.11Z"/><path class="cls-1" d="M314.39,205.9c.06-5.92,2.8-9.84,6.48-13.24,2.38-2.21,4.9-4.27,7.27-6.48,1.17-1.1,1.8-.82,2.54.43a18,18,0,0,1,1.94,13.83c-1.7,7.21-5.76,13.26-9.82,19.28-1,1.46-1.87.64-2.66-.24A23.67,23.67,0,0,1,314.39,205.9Z"/><path class="cls-1" d="M371.64,217.35a47.83,47.83,0,0,0-6.77,7.79c-4,5.16-9.46,7-15.65,7.52-2,.16-3.92.31-5.86.6-2.47.36-4.88,1-6.65,2.94a1.3,1.3,0,0,1-1.33.57c-.56-.16-.48-.67-.38-1.06,1.65-6.05,3.24-12.23,9.37-15.48,3.81-2,8.11-2.64,12.38-2.83C361.44,217.2,366.14,217.35,371.64,217.35Z"/><path class="cls-1" d="M305.17,253.09c.51,6.73-2.9,11.83-9.09,15.3-2.67,1.5-5.4,2.9-8.12,4.32-.44.22-.92.66-1.42.33s-.17-.91-.11-1.4c.39-3.12.75-6.25,1.14-9.38a13.27,13.27,0,0,1,6.16-9.57c3-2.09,6.46-3.46,9.75-5.06,1.19-.58,1.73-.33,1.7,1S305.17,251.23,305.17,253.09Z"/><path class="cls-1" d="M282.27,248.17a12.46,12.46,0,0,1-10.56-5.3c-2.52-3.31-3.78-7.24-5.33-11-.62-1.5.45-1.63,1.2-1.2,7.22,4.1,15.68,4.67,23.09,8.18a22,22,0,0,1,5.53,3.68c.62.57,1.22,1.08,0,1.62C291.7,246.07,287.29,248.16,282.27,248.17Z"/><path class="cls-1" d="M288.17,203.65c.14,1.64-.61,1.87-2.05,1.56A38.09,38.09,0,0,1,274.63,201c-7.42-4.27-10.47-10.93-10.64-19.2,0-.56-.29-1.26.44-1.59s1.13.2,1.51.66c3.32,4.09,7.91,6.48,12.31,9.11,4.68,2.8,8.76,6.05,9.66,11.9C288,202.47,288.09,203.06,288.17,203.65Z"/><path class="cls-1" d="M347,257.25c5.32-.18,9.32,2.1,13.29,4.53,4.31,2.63,4.33,2.62,0,5.16-2.57,1.52-5,3.35-8.06,3.75-5,.64-8.72-1.88-11.92-5.29-4.84-5.14-4.63-5.77,2-7.49A17.62,17.62,0,0,1,347,257.25Z"/><path class="cls-1" d="M320.63,182.49c-.27,6.46-3.55,11.41-8,15.77-1.16,1.13-1.64.28-2.29-.69-3.86-5.71-3.07-11.4-.16-17.17a35.68,35.68,0,0,1,4.84-7.19c1.06-1.23,1.85-1.16,2.79.16A14.5,14.5,0,0,1,320.63,182.49Z"/><path class="cls-1" d="M271.9,206.45c6.42,0,10.08,2.33,12.48,8.22.9,2.2,1.49,4.52,2.28,6.77.5,1.42.15,1.91-1.38,1.62-2.34-.44-4.72-.68-7-1.2a9.75,9.75,0,0,1-6.86-5.64c-1.33-2.75-2.26-5.71-4.41-8-.73-.79-.23-1.1.61-1.33A17,17,0,0,1,271.9,206.45Z"/><path class="cls-1" d="M313.91,264.88a15.38,15.38,0,0,1-12.37,15c-1,.18-2,.31-1.6-1.28,1.85-8,3.79-15.87,10.91-21.11.6-.44,1.17-1.27,1.95-1s.41,1.35.49,2.06C313.53,260.8,313.73,263,313.91,264.88Z"/><path class="cls-1" d="M302.59,197.37a10.47,10.47,0,0,1-.44,3.14c-1.29,3.45-2,3.4-5.24,2-7.84-3.25-8.12-10.27-9.05-17-.17-1.26.74-1.43,1.69-.82a21.87,21.87,0,0,0,5.94,2.28C300.35,188.44,302.53,191.61,302.59,197.37Z"/><path class="cls-1" d="M356.07,199.54c-2.76,2.51-5.16,4.79-7.67,6.94-4.07,3.49-9,2.42-13.75,2.51-.92,0-.91-.66-.54-1.24,2.9-4.61,5.93-9.2,12-9.81C349.35,197.62,352.51,198.65,356.07,199.54Z"/><path class="cls-1" d="M303.52,209.89a9.36,9.36,0,0,1,2.44-6.83c1.76-2,3.53-1.73,4.85.57,2.69,4.7,3.49,9.4.14,14.19-1.29,1.84-2.56,2-4.15.41A11,11,0,0,1,303.52,209.89Z"/><path class="cls-1" d="M373.27,254.78c-4.5,5.83-10.06,6.56-15.5,2.15-1-.86-2-1.91-3-2.71-1.46-1.08-1.58-1.73.23-2.57a21.76,21.76,0,0,1,8.41-1.87,5.53,5.53,0,0,1,4.74,2.08C369.41,253.52,370.94,254.78,373.27,254.78Z"/><path class="cls-1" d="M289.63,206.46c1.32.15,3.37.28,5.38.64,3.62.65,7.05,6.05,6.48,9.9-.15,1-.66,1-1.39,1.08-6.09.55-12.42-3.94-14.22-10-.41-1.38,0-1.7,1.24-1.64C287.71,206.49,288.31,206.46,289.63,206.46Z"/><path class="cls-1" d="M363.65,241.1c-3.65,3.83-7.49,6.12-12.14,6.93a21.38,21.38,0,0,1-8.35-.33c-1.86-.42-1.86-1-.77-2.3,3-3.53,6.94-4.78,11.36-5A66.9,66.9,0,0,1,363.65,241.1Z"/><path class="cls-1" d="M291.23,235.61c-4.68-.46-7.54-3.65-10.36-6.9-.53-.62,0-.84.43-1.12,4.54-2.9,12.51-.79,15.2,3.94a1.58,1.58,0,0,1-.52,2.37A9.07,9.07,0,0,1,291.23,235.61Z"/><path class="cls-1" d="M341.77,281c-3,.08-6.57-4.94-5.29-7.75.27-.61.78-.58,1.27-.54,4.78.35,8.49,2.7,11.58,6.19.89,1,.1,1.3-.78,1.39C346.36,280.55,344.17,280.77,341.77,281Z"/></svg>