<?xml version="1.0" encoding="utf-8"?>
<svg viewBox="402.991 2350.779 4262.309 1500.021" width="4262.309" height="1500.021" xmlns="http://www.w3.org/2000/svg">
  <linearGradient id="SVGID_23_" gradientUnits="userSpaceOnUse" x1="1413.3754" y1="3316.3677" x2="1924.676" y2="3316.3677">
    <stop offset="0" style="stop-color:#8DC63F"/>
    <stop offset="1" style="stop-color:#00A651"/>
  </linearGradient>
  <g>
    <path fill="#FCD304" d="M1054,2838c0.1-105,87.2-191.4,192.4-191.1c105.4,0.4,191.3,88,191.1,195.1 c-0.2,103.8-88.9,191.4-193.5,191C1137.5,3032.7,1053.8,2946.8,1054,2838z M1245.7,2703.9c-73,0-134,60.6-134,133.3 c-0.1,77.9,58.6,138.5,134.3,138.8c76,0.3,137.6-59.2,138-133.5C1384.4,2767.4,1321.1,2703.9,1245.7,2703.9z"/>
    <path fill="#FCD304" d="M1384.6,3071.1c10,0.6,18.2,6,23.2,15.3c16.4,30,32.8,60.1,48.4,90.5c7.1,13.8,1.7,30.2-11.6,36.8 c-13.9,6.9-28.6,5.2-36.4-8.1c-18.5-31.6-36.1-63.9-51.6-97.1C1348.2,3091.1,1364.3,3071.3,1384.6,3071.1z"/>
    <path fill="#FCD304" d="M1021.6,2690.7c-0.3,20.5-22.6,35.2-40.9,25.4c-31.3-16.8-61.5-35.6-91.3-55c-12.9-8.4-14.9-26.9-6.4-38.4 c9.4-12.7,22.4-16.8,36.2-8.8c30.2,17.4,60,35.7,89.6,54.1C1017.4,2673.2,1021.3,2681.8,1021.6,2690.7z"/>
    <path fill="#FCD304" d="M898.9,3055.7c-8.9-0.4-18.2-4.7-23.4-15.4c-5.1-10.5-3.8-20.5,4-29.5c5-5.8,11.1-10,17.8-13.5 c25.4-13.3,50.5-27.2,76.2-39.7c17.5-8.5,35.9-2.9,42.3,10.9c6.8,14.6,0.1,30.7-17.4,40.2c-25.7,14-51.8,27.4-77.7,41 C914.8,3053,908.5,3055.8,898.9,3055.7z"/>
    <path fill="#FCD304" d="M1053.9,2470.9c9.5,0.5,18.2,5.8,23.9,15.6c15.3,26.3,30.9,52.6,45.5,79.3c10.3,18.9,6.7,35.6-8,44.2 c-13.9,8.2-31.3,1.7-41.9-16.4c-14.8-25.2-29.5-50.5-43.5-76.1C1017.3,2494.3,1028.9,2470.5,1053.9,2470.9z"/>
    <path fill="#FCD304" d="M1119.1,3083c0.1,10.6-2,17-5.7,23c-15.6,25.6-30.8,51.3-46.9,76.6c-11.1,17.4-27.9,23.4-40.9,16.2 c-13.8-7.6-17.5-26.2-7-44.8c15.3-27.1,31.7-53.7,48.1-80.2c8.1-13.1,20.6-18.3,35.5-13.7C1114.6,3063.9,1118.6,3074.4,1119.1,3083 z"/>
    <path fill="#FCD304" d="M1272.8,2496.1c0,15.6,0.2,31.2,0,46.8c-0.3,16.4-7.3,27.7-24.9,29.5c-15.6,1.6-28.7-8.5-30.3-26.5 c-3-33.6-2.9-67.4-0.1-101c1.5-18.2,14.1-28.2,29.9-26.8c17.5,1.6,24.9,12.7,25.3,29.2C1273.1,2463.6,1272.8,2479.9,1272.8,2496.1z "/>
    <path fill="#FCD304" d="M1492.6,2513.4c-1.2,3.5-2.1,9.3-5,13.9c-17.8,27.8-35.6,55.6-54.5,82.6c-10.4,14.8-25.4,17.1-39.2,8.5 c-13.7-8.6-17.7-21.9-8.2-37c17.7-28.6,36.5-56.4,55.3-84.3c7.5-11.1,18.8-14,31.4-10.1C1484.1,2490.6,1491,2498.8,1492.6,2513.4z"/>
    <path fill="#FCD304" d="M1208.5,3186.2c0-16.2-0.7-32.4,0.2-48.6c1.2-21,13.8-34.3,30.4-33.6c16,0.7,26.4,13.7,26,34.5 c-0.5,30.5,1,61-3.1,91.4c-2.6,19.3-12.7,30.5-28.8,30c-15.6-0.4-25.1-12.5-25.4-32.8c-0.2-13.7,0-27.4,0-41.1 C1208,3186.2,1208.3,3186.2,1208.5,3186.2z"/>
    <path fill="#FCD304" d="M901.4,2860.6c-16.2,0-32.5,0.7-48.7-0.2c-18.5-1-27.2-10.4-27-26.7c0.2-16.6,10.6-28.6,27.7-29.3 c34.9-1.3,69.9,0.1,104.6,3.8c15.3,1.7,22.7,12.3,22.3,27.5c-0.3,15-11.8,25.7-28.5,26.5c-8.7,0.4-17.4-0.6-26.2-0.8 c-8.1-0.2-16.2,0-24.3,0C901.4,2861.1,901.4,2860.9,901.4,2860.6z"/>
  </g>
  <g>
    <text transform="matrix(1 0 0 1 2281.613 3766.1484)" fill="#2EB34A" font-family="'Gabriela-Regular'" font-size="845.4008" style="white-space: pre;">ИРИЙ</text>
  </g>
  <path fill="url(#SVGID_23_)" d="M1413.4,3762.1c21.7-81.2,65.9-148.5,127.9-204.2c53.7-48.3,116.1-81.1,186.1-99.3 c5.7-1.5,13-1.7,9.2-11.8c-21.1-55.4-8.9-109.8,5.8-164.1c10.9-40.1,21.6-80.3,23.8-122c4.1-76.4-30.2-137.1-79.9-191 c-17.8-19.3-37.3-37.2-55.9-55.8c-2.7-2.7-8.6-5-5.6-9.8c2.4-3.9,7.8-2,11.7-1.2c57.6,11.9,108.9,35.4,147.5,81.6 c3,3.6,6.5,6.9,9.9,10.2c1,1,2.6,1.4,5.3,2.8c2.7-7.7,5.1-15,7.6-22.2c2.6-3.7,3.9-7.8,4.1-12.4c1.3-2.1,2.6-4.1,3.8-6.2 c3.9-3.6,5.6-8.4,7.2-13.3c12.6-21.9,25-43.9,37.8-65.7c2.4-4.1,4.3-12,10.7-8.8c5.1,2.5,0.3,8.7-0.9,12.7 c-14.1,45.7-26,92-35.8,138.9c-2.2,10.6,0.2,16.7,8.7,22.5c15.3,10.5,30.5,20.7,49,24.5c6.8,1.4,9.2,4.1,4.3,10.6 c-41.2,55.2-45,118.6-39.4,183.8c5.8,67.4,31.7,128.2,62.7,187.2c8.4,15.9,8.6,15.8-9.1,15.9c-10,0-20.2,1.2-30-0.2 c-61.8-8.6-110.2,18.9-154.9,56.4c-72.4,60.8-115.3,139.5-139.2,229.6c-1.1,4.1-2.4,8-3.5,12.1 C1582.4,3763.2,1469.7,3766.4,1413.4,3762.1z"/>
  <path fill="#2EB34A" d="M1750.4,2810.7c0.4-36.4,17.2-60.6,39.9-81.6c14.7-13.6,30.2-26.2,44.8-39.9c7.2-6.7,11.1-5,15.7,2.7 c15.9,26.8,19,55.4,11.9,85.1c-10.5,44.4-35.4,81.6-60.4,118.7c-6,9-11.6,3.9-16.4-1.5C1763.7,2869.3,1753.3,2839.5,1750.4,2810.7z"/>
  <path fill="#2EB34A" d="M2102.9,2881.2c-18.2,15.9-29.6,32.2-41.7,47.9c-24.5,31.7-58.2,43.3-96.3,46.3c-12.1,1-24.1,1.9-36.1,3.6 c-15.2,2.3-30,5.9-40.9,18.1c-2.2,2.4-4.7,4.5-8.2,3.5c-3.4-1-2.9-4.1-2.3-6.5c10.1-37.3,19.9-75.4,57.6-95.4 c23.5-12.4,50-16.3,76.2-17.4C2040.1,2880.2,2069,2881.2,2102.9,2881.2z"/>
  <path fill="#2EB34A" d="M1693.7,3101.2c3.1,41.5-17.8,72.9-55.9,94.2c-16.5,9.2-33.3,17.8-50,26.6c-2.7,1.4-5.7,4.1-8.7,2 c-3.3-2.2-1.1-5.6-0.7-8.6c2.4-19.2,4.7-38.5,7-57.8c3.1-25.8,17.1-44.5,38-58.9c18.7-12.9,39.7-21.3,60-31.2 c7.3-3.6,10.7-2,10.4,6.4C1693.5,3081.8,1693.7,3089.7,1693.7,3101.2z"/>
  <path fill="#2EB34A" d="M1552.7,3070.9c-27.3,0.4-48.6-11.1-65-32.6c-15.6-20.4-23.3-44.6-32.9-67.9c-3.8-9.2,2.8-10,7.4-7.4 c44.5,25.2,96.5,28.8,142.2,50.4c12.4,5.9,23.8,13.3,34,22.6c3.9,3.5,7.5,6.7-0.2,10C1610.7,3057.9,1583.6,3070.8,1552.7,3070.9z"/>
  <path fill="#2EB34A" d="M1589,2796.8c0.9,10.1-3.8,11.5-12.7,9.6c-24.9-5.2-48.6-13.2-70.8-25.9c-45.7-26.3-64.5-67.3-65.5-118.2 c-0.1-3.5-1.8-7.7,2.7-9.8c4.3-1.9,7,1.2,9.3,4.1c20.5,25.2,48.7,39.9,75.8,56.1c28.8,17.2,53.9,37.2,59.5,73.3 C1588,2789.5,1588.5,2793.2,1589,2796.8z"/>
  <path fill="#2EB34A" d="M1950.9,3126.8c32.8-1.1,57.4,13,81.8,27.9c26.6,16.2,26.7,16.1,0.2,31.8c-15.8,9.3-30.7,20.6-49.6,23 c-31,3.9-53.7-11.5-73.4-32.5c-29.7-31.6-28.5-35.5,12.6-46.1C1932.7,3128.2,1943.1,3126.5,1950.9,3126.8z"/>
  <path fill="#2EB34A" d="M1788.9,2666.5c-1.7,39.8-21.9,70.3-49.3,97.1c-7.1,7-10.1,1.8-14.1-4.2c-23.7-35.2-18.9-70.2-1-105.7 c8.1-16.1,18.1-30.7,29.8-44.3c6.5-7.6,11.4-7.2,17.2,1C1783.6,2627.3,1789.5,2645.8,1788.9,2666.5z"/>
  <path fill="#2EB34A" d="M1488.9,2814.1c39.5-0.2,62.1,14.3,76.8,50.6c5.5,13.6,9.2,27.9,14,41.7c3.1,8.7,0.9,11.7-8.5,10 c-14.4-2.7-29.1-4.1-43.4-7.4c-19.6-4.4-33.5-16.6-42.2-34.7c-8.2-16.9-13.9-35.2-27.1-49.4c-4.5-4.9-1.4-6.8,3.8-8.2 C1471,2814.2,1479.9,2814.1,1488.9,2814.1z"/>
  <path fill="#2EB34A" d="M1747.5,3173.8c0.1,45.2-33.2,84.7-76.2,92.4c-6.2,1.1-12.1,1.9-9.9-7.9c11.4-49,23.4-97.7,67.2-129.9 c3.7-2.7,7.3-7.8,12.1-6c5.6,2.1,2.5,8.3,3,12.7C1745.1,3148.6,1746.3,3162.2,1747.5,3173.8z"/>
  <path fill="#2EB34A" d="M1677.8,2758.1c-0.4,6-0.2,12.7-2.7,19.4c-8,21.2-12.2,20.9-32.3,12.6c-48.2-20-50-63.2-55.7-104.8 c-1.1-7.7,4.6-8.8,10.4-5c11.2,7.3,24.1,10.2,36.6,14C1664,2703.1,1677.4,2722.7,1677.8,2758.1z"/>
  <path fill="#2EB34A" d="M2007,2771.5c-17,15.4-31.8,29.5-47.2,42.7c-25.1,21.5-55.6,14.9-84.6,15.4c-5.7,0.1-5.6-4-3.4-7.6 c17.9-28.4,36.5-56.6,73.9-60.3C1965.7,2759.7,1985.1,2766,2007,2771.5z"/>
  <path fill="#2EB34A" d="M1683.5,2835.2c-0.7-16,4.4-30.2,15-42c10.9-12.2,21.8-10.7,29.9,3.5c16.6,28.9,21.5,57.9,0.9,87.4 c-7.9,11.4-15.8,12.2-25.6,2.5C1689.2,2872.4,1683.3,2855,1683.5,2835.2z"/>
  <path fill="#2EB34A" d="M2112.9,3111.6c-27.7,35.8-61.9,40.4-95.4,13.2c-6.5-5.3-12.1-11.7-18.8-16.7c-9-6.6-9.7-10.6,1.4-15.8 c16.6-7.6,33.9-10.9,51.8-11.5c11.3-0.4,21.8,3.3,29.2,12.8C2089.2,3103.8,2098.6,3111.6,2112.9,3111.6z"/>
  <path fill="#2EB34A" d="M1598,2814.1c8.2,0.9,20.8,1.7,33.1,3.9c22.3,4,43.4,37.3,39.9,61c-0.9,5.9-4,6.2-8.5,6.6 c-37.5,3.4-76.5-24.2-87.5-61.4c-2.5-8.5,0-10.4,7.6-10.1C1586.2,2814.3,1589.9,2814.1,1598,2814.1z"/>
  <path fill="#2EB34A" d="M2053.7,3027.4c-22.4,23.6-46.1,37.7-74.7,42.6c-17.1,3-34.3,1.8-51.4-2c-11.4-2.6-11.4-6.2-4.7-14.2 c18.4-21.7,42.7-29.4,69.9-30.7C2011.7,3022.1,2030.5,3025,2053.7,3027.4z"/>
  <path fill="#2EB34A" d="M1607.8,2993.5c-28.8-2.8-46.4-22.4-63.8-42.5c-3.3-3.8-0.1-5.2,2.6-6.9c28-17.8,77-4.9,93.6,24.3 c3.9,6.8,1.8,10.5-3.2,14.6C1628.6,2989.9,1618.4,2992.2,1607.8,2993.5z"/>
  <path fill="#2EB34A" d="M1919,3273.1c-18.5,0.5-40.4-30.4-32.5-47.7c1.7-3.7,4.8-3.5,7.8-3.3c29.4,2.1,52.3,16.6,71.3,38.1 c5.5,6.2,0.6,8-4.8,8.6C1947.3,3270.3,1933.8,3271.6,1919,3273.1z"/>
  <path fill="#2EB34A" d="M1073.9,3763.2l158.1,0.3c0,0,81.5-274.5,455.5-315.8C1687.5,3447.8,1242.3,3406,1073.9,3763.2z"/>
  <path fill="#2EB34A" d="M752.7,3762.2l158.1,0.3c0,0,175.1-268.9,558.1-317.3C1469,3445.2,908.8,3459.7,752.7,3762.2z"/>
  <path fill="#2EB34A" d="M470.7,3762.2l158.1,0.3c0,0,181.8-269.5,704.6-321.5C1333.5,3441,726.2,3433.6,470.7,3762.2z"/>
  <path fill="#2EB34A" d="M1413.4,3762.1c21.7-81.2,65.9-148.5,127.9-204.2c53.7-48.3,116.1-81.1,186.1-99.3c5.7-1.5,13-1.7,9.2-11.8 c-21.1-55.4-8.9-109.8,5.8-164.1c10.9-40.1,21.6-80.3,23.8-122c4.1-76.4-30.2-137.1-79.9-191c-17.8-19.3-37.3-37.2-55.9-55.8 c-2.7-2.7-8.6-5-5.6-9.8c2.4-3.9,7.8-2,11.7-1.2c57.6,11.9,108.9,35.4,147.5,81.6c3,3.6,6.5,6.9,9.9,10.2c1,1,2.6,1.4,5.3,2.8 c2.7-7.7,5.1-15,7.6-22.2c2.6-3.7,3.9-7.8,4.1-12.4c1.3-2.1,2.6-4.1,3.8-6.2c3.9-3.6,5.6-8.4,7.2-13.3c12.6-21.9,25-43.9,37.8-65.7 c2.4-4.1,4.3-12,10.7-8.8c5.1,2.5,0.3,8.7-0.9,12.7c-14.1,45.7-26,92-35.8,138.9c-2.2,10.6,0.2,16.7,8.7,22.5 c15.3,10.5,30.5,20.7,49,24.5c6.8,1.4,9.2,4.1,4.3,10.6c-41.2,55.2-45,118.6-39.4,183.8c5.8,67.4,31.7,128.2,62.7,187.2 c8.4,15.9,8.6,15.8-9.1,15.9c-10,0-20.2,1.2-30-0.2c-61.8-8.6-110.2,18.9-154.9,56.4c-72.4,60.8-115.3,139.5-139.2,229.6 c-1.1,4.1-2.4,8-3.5,12.1L1413.4,3762.1z"/>
</svg>