<?xml version="1.0" encoding="utf-8"?>
<svg viewBox="11.79 25.2 666.117 248.909" width="666.117" height="248.909" xmlns="http://www.w3.org/2000/svg">
  <path class="cls-1" d="M 104.708 93.414 C 104.862 76.255 118.81 62.424 135.968 62.414 C 153.088 62.474 167.038 76.714 166.968 94.094 C 166.968 110.954 152.528 125.184 135.538 125.094 C 118.278 125.064 104.688 111.064 104.708 93.414 Z M 135.858 71.634 C 123.914 71.714 114.231 81.34 114.078 93.284 C 114.078 105.934 123.598 115.784 135.898 115.834 C 148.088 116.068 158.143 106.344 158.318 94.154 C 158.226 81.778 148.234 71.759 135.858 71.634 Z" style="fill: rgb(82, 172, 98);"/>
  <path class="cls-1" d="M 158.448 131.274 C 160.061 131.367 161.5 132.317 162.218 133.764 C 164.878 138.644 167.538 143.514 170.078 148.454 C 171.236 150.63 170.385 153.334 168.188 154.454 C 165.928 155.574 163.538 155.294 162.268 153.124 C 159.268 147.994 156.408 142.744 153.878 137.364 C 152.508 134.514 155.108 131.304 158.448 131.274 Z" style="fill: rgb(82, 172, 98);"/>
  <path class="cls-1" d="M 99.448 69.484 C 99.403 72.874 95.855 75.073 92.798 73.604 C 87.728 70.874 82.798 67.814 77.978 64.674 C 75.975 63.229 75.526 60.432 76.978 58.434 C 78.508 56.364 80.618 55.714 82.868 57.004 C 87.778 59.834 92.608 62.804 97.428 65.794 C 98.681 66.604 99.441 67.991 99.448 69.484 Z" style="fill: rgb(82, 172, 98);"/>
  <path class="cls-1" d="M 79.528 128.764 C 77.893 128.726 76.422 127.76 75.738 126.274 C 74.879 124.704 75.143 122.758 76.388 121.474 C 77.202 120.571 78.179 119.831 79.268 119.294 C 83.398 117.134 87.468 114.874 91.658 112.834 C 94.498 111.454 97.488 112.354 98.538 114.614 C 99.588 116.874 98.538 119.614 95.708 121.144 C 91.528 123.414 87.298 125.594 83.088 127.804 C 82.012 128.443 80.781 128.775 79.528 128.764 Z" style="fill: rgb(82, 172, 98);"/>
  <path class="cls-1" d="M 104.698 33.784 C 106.349 33.895 107.823 34.857 108.588 36.324 C 111.078 40.594 113.588 44.854 115.978 49.204 C 117.648 52.264 117.058 54.984 114.678 56.384 C 112.298 57.784 109.588 56.654 107.868 53.714 C 105.458 49.624 103.068 45.514 100.798 41.344 C 98.748 37.584 100.638 33.714 104.698 33.784 Z" style="fill: rgb(82, 172, 98);"/>
  <path class="cls-1" d="M 115.298 133.204 C 115.377 134.515 115.056 135.819 114.378 136.944 C 111.848 141.094 109.378 145.284 106.758 149.384 C 104.958 152.194 102.228 153.184 100.108 152.014 C 97.988 150.844 97.258 147.754 98.968 144.734 C 101.468 140.324 104.118 136.004 106.788 131.734 C 107.889 129.658 110.351 128.711 112.558 129.514 C 114.177 130.018 115.284 131.509 115.298 133.204 Z" style="fill: rgb(82, 172, 98);"/>
  <path class="cls-1" d="M 140.258 37.874 C 140.258 40.404 140.258 42.944 140.258 45.474 C 140.258 48.004 139.068 49.984 136.258 50.274 C 133.666 50.589 131.373 48.585 131.338 45.974 C 130.873 40.517 130.873 35.03 131.338 29.574 C 131.578 26.574 133.628 24.984 136.198 25.224 C 139.038 25.484 140.248 27.284 140.308 29.964 C 140.368 32.644 140.258 35.234 140.258 37.874 Z" style="fill: rgb(82, 172, 98);"/>
  <path class="cls-1" d="M 175.958 40.684 C 175.782 41.464 175.51 42.22 175.148 42.934 C 172.248 47.444 169.368 51.934 166.298 56.354 C 164.992 58.602 162.033 59.237 159.918 57.724 C 157.688 56.344 157.058 54.174 158.578 51.724 C 161.458 47.084 164.518 42.554 167.578 38.034 C 168.661 36.33 170.805 35.64 172.678 36.394 C 174.596 36.947 175.927 38.688 175.958 40.684 Z" style="fill: rgb(82, 172, 98);"/>
  <path class="cls-1" d="M 129.818 149.964 C 129.818 147.334 129.698 144.694 129.818 142.074 C 130.008 138.664 132.058 136.514 134.748 136.624 C 137.438 136.734 139.038 138.844 138.978 142.234 C 138.888 147.184 139.128 152.144 138.468 157.084 C 138.048 160.214 136.398 162.084 133.788 161.964 C 131.178 161.844 129.708 159.964 129.668 156.644 C 129.668 154.414 129.668 152.194 129.668 149.964 Z" style="fill: rgb(82, 172, 98);"/>
  <path class="cls-1" d="M 79.938 97.064 C 77.298 97.064 74.658 97.184 72.028 97.064 C 69.028 96.894 67.608 95.374 67.638 92.724 C 67.489 90.134 69.554 87.954 72.148 87.964 C 77.823 87.755 83.505 87.962 89.148 88.584 C 91.628 88.854 92.828 90.584 92.778 93.054 C 92.728 95.524 90.858 97.234 88.148 97.364 C 86.738 97.434 85.318 97.264 83.898 97.234 C 82.478 97.204 81.268 97.234 79.948 97.234 Z" style="fill: rgb(82, 172, 98);"/>
  <text class="cls-2" style="white-space: pre; font-family: Gabriela-Regular, &quot;Gabriela Regular&quot;; font-size: 137.3px; line-height: 219.712px; perspective-origin: 558.797px 0px; fill: rgb(82, 172, 98);" x="304.118" y="244.164">ИРИЙ</text>
  <path class="cls-1" d="M 163.088 243.504 C 166.608 230.314 173.798 219.384 183.868 210.324 C 192.487 202.582 202.858 197.05 214.088 194.204 C 215.018 193.964 216.208 193.924 215.588 192.294 C 212.168 183.294 214.148 174.454 216.528 165.644 C 218.298 159.134 220.038 152.644 220.408 145.834 C 221.068 133.424 215.498 123.564 207.408 114.834 C 204.508 111.694 201.348 108.834 198.328 105.764 C 197.898 105.324 196.938 104.954 197.418 104.174 C 197.818 103.544 198.688 103.844 199.328 103.984 C 208.698 105.904 217.008 109.734 223.328 117.234 C 223.831 117.816 224.365 118.37 224.928 118.894 C 225.198 119.077 225.486 119.231 225.788 119.354 L 227.018 115.754 C 227.435 115.168 227.665 114.471 227.678 113.754 L 228.308 112.754 C 228.871 112.134 229.263 111.38 229.448 110.564 C 231.448 107.004 233.508 103.434 235.588 99.894 C 235.978 99.234 236.288 97.954 237.328 98.464 C 238.168 98.874 237.378 99.884 237.178 100.534 C 234.878 107.954 232.958 115.474 231.368 123.084 C 230.865 124.484 231.466 126.042 232.778 126.744 C 235.258 128.444 237.728 130.094 240.778 130.744 C 241.888 130.974 242.268 131.404 241.468 132.474 C 234.778 141.474 234.168 151.734 235.078 162.324 C 236.028 173.264 240.218 183.154 245.268 192.734 C 246.628 195.314 246.658 195.304 243.778 195.314 C 242.157 195.434 240.53 195.434 238.908 195.314 C 228.908 193.914 221.008 198.384 213.738 204.474 C 201.988 214.344 195.018 227.134 191.138 241.774 C 190.958 242.434 190.748 243.084 190.558 243.774 C 181.41 244.43 172.223 244.34 163.088 243.504 Z" style="fill: rgb(82, 172, 98);"/>
  <path class="cls-1" d="M 118.618 225.684 C 124.487 219.228 131.237 213.633 138.668 209.064 C 152.424 200.878 167.688 195.548 183.548 193.394 C 190.738 192.359 197.995 191.858 205.258 191.894 C 206.081 191.859 206.896 192.049 207.618 192.444 C 203.618 193.074 199.618 193.554 195.618 194.354 C 180.445 197.282 166.272 204.043 154.448 213.994 C 147.138 219.957 141.223 227.449 137.118 235.944 C 135.638 237.764 135.118 240.034 134.238 242.144 C 133.868 243.064 133.518 243.724 132.288 243.714 C 124.288 243.654 116.238 243.714 107.918 243.714 C 110.058 236.644 114.448 231.234 118.618 225.684 Z" style="fill: rgb(82, 172, 98);"/>
  <path class="cls-1" d="M 155.448 193.064 C 155.608 193.064 155.718 192.874 155.888 192.864 L 170.978 191.924 L 171.598 191.924 C 172.129 191.942 172.441 192.529 172.159 192.979 C 172.054 193.146 171.883 193.261 171.688 193.294 C 164.203 193.989 156.773 195.189 149.448 196.884 C 133.858 200.544 119.118 206.234 105.788 215.244 C 95.518 222.064 87.038 230.494 81.448 241.574 C 80.927 243.018 79.485 243.919 77.958 243.754 C 71.378 243.624 64.788 243.754 58.198 243.704 C 55.488 243.704 55.288 243.444 56.678 241.054 C 61.369 233.277 67.547 226.501 74.858 221.114 C 82.194 215.69 90.093 211.073 98.418 207.344 C 116.148 199.574 134.728 195.204 153.928 193.254 C 153.988 193.259 154.049 193.259 154.108 193.254 C 155.338 193.064 153.798 193.264 155.448 193.064 Z" style="fill: rgb(82, 172, 98);"/>
  <path class="cls-1" d="M 91.548 198.404 C 97.668 197.324 103.758 196.054 109.918 195.234 C 118.018 194.154 126.088 192.754 134.318 192.764 C 137.618 192.764 140.908 192.164 144.208 191.924 C 145.909 191.742 147.626 191.806 149.308 192.114 C 149.308 192.324 149.378 192.544 149.418 192.754 C 140.738 193.114 132.138 194.254 123.548 195.474 C 113.683 196.92 103.951 199.164 94.448 202.184 C 76.298 207.564 59.218 215.054 44.768 227.604 C 40.041 231.577 36.006 236.308 32.828 241.604 C 32.176 243.008 30.698 243.838 29.158 243.664 C 24.018 243.534 18.878 243.664 13.748 243.664 C 13.088 243.664 12.238 243.974 11.888 243.224 C 11.538 242.474 12.208 241.964 12.558 241.424 C 17.388 233.984 23.868 228.174 31.088 223.204 C 45.498 213.304 61.418 206.694 78.218 202.094 Z" style="fill: rgb(82, 172, 98);"/>
  <path class="cls-1" d="M 217.838 88.964 C 217.898 83.044 220.638 79.124 224.318 75.724 C 226.698 73.514 229.218 71.454 231.588 69.244 C 232.758 68.144 233.388 68.424 234.128 69.674 C 236.61 73.835 237.309 78.82 236.068 83.504 C 234.368 90.714 230.308 96.764 226.248 102.784 C 225.248 104.244 224.378 103.424 223.588 102.544 C 220.275 98.745 218.26 93.987 217.838 88.964 Z" style="fill: rgb(82, 172, 98);"/>
  <path class="cls-1" d="M 275.088 100.414 C 272.557 102.758 270.288 105.37 268.318 108.204 C 264.318 113.364 258.858 115.204 252.668 115.724 C 250.668 115.884 248.748 116.034 246.808 116.324 C 244.338 116.684 241.928 117.324 240.158 119.264 C 239.872 119.706 239.346 119.931 238.828 119.834 C 238.268 119.674 238.348 119.164 238.448 118.774 C 240.098 112.724 241.688 106.544 247.818 103.294 C 251.628 101.294 255.928 100.654 260.198 100.464 C 264.888 100.264 269.588 100.414 275.088 100.414 Z" style="fill: rgb(82, 172, 98);"/>
  <path class="cls-1" d="M 208.618 136.154 C 209.128 142.884 205.718 147.984 199.528 151.454 C 196.858 152.954 194.128 154.354 191.408 155.774 C 190.968 155.994 190.488 156.434 189.988 156.104 C 189.488 155.774 189.818 155.194 189.878 154.704 C 190.268 151.584 190.628 148.454 191.018 145.324 C 191.53 141.37 193.792 137.856 197.178 135.754 C 200.178 133.664 203.638 132.294 206.928 130.694 C 208.118 130.114 208.658 130.364 208.628 131.694 C 208.598 133.024 208.618 134.294 208.618 136.154 Z" style="fill: rgb(82, 172, 98);"/>
  <path class="cls-1" d="M 185.718 131.234 C 181.531 131.354 177.564 129.363 175.158 125.934 C 172.638 122.624 171.378 118.694 169.828 114.934 C 169.208 113.434 170.278 113.304 171.028 113.734 C 178.248 117.834 186.708 118.404 194.118 121.914 C 196.137 122.853 198.002 124.094 199.648 125.594 C 200.268 126.164 200.868 126.674 199.648 127.214 C 195.148 129.134 190.738 131.224 185.718 131.234 Z" style="fill: rgb(82, 172, 98);"/>
  <path class="cls-1" d="M 191.618 86.714 C 191.758 88.354 191.008 88.584 189.568 88.274 C 185.537 87.499 181.657 86.077 178.078 84.064 C 170.658 79.794 167.608 73.134 167.438 64.864 C 167.438 64.304 167.148 63.604 167.878 63.274 C 168.608 62.944 169.008 63.474 169.388 63.934 C 172.708 68.024 177.298 70.414 181.698 73.044 C 186.378 75.844 190.458 79.094 191.358 84.944 C 191.448 85.534 191.538 86.124 191.618 86.714 Z" style="fill: rgb(82, 172, 98);"/>
  <path class="cls-1" d="M 250.448 140.314 C 255.768 140.134 259.768 142.414 263.738 144.844 C 268.048 147.474 268.068 147.464 263.738 150.004 C 261.168 151.524 258.738 153.354 255.678 153.754 C 250.678 154.394 246.958 151.874 243.758 148.464 C 238.918 143.324 239.128 142.694 245.758 140.974 C 247.285 140.544 248.863 140.322 250.448 140.314 Z" style="fill: rgb(82, 172, 98);"/>
  <path class="cls-1" d="M 224.078 65.554 C 223.808 72.014 220.528 76.964 216.078 81.324 C 214.918 82.454 214.438 81.604 213.788 80.634 C 209.928 74.924 210.718 69.234 213.628 63.464 C 214.944 60.879 216.569 58.465 218.468 56.274 C 219.528 55.044 220.318 55.114 221.258 56.434 C 223.201 59.068 224.195 62.282 224.078 65.554 Z" style="fill: rgb(82, 172, 98);"/>
  <path class="cls-1" d="M 175.348 89.514 C 181.768 89.514 185.428 91.844 187.828 97.734 C 188.728 99.934 189.318 102.254 190.108 104.504 C 190.608 105.924 190.258 106.414 188.728 106.124 C 186.388 105.684 184.008 105.444 181.728 104.924 C 178.669 104.255 176.116 102.156 174.868 99.284 C 173.538 96.534 172.608 93.574 170.458 91.284 C 169.728 90.494 170.228 90.184 171.068 89.954 C 172.471 89.626 173.909 89.478 175.348 89.514 Z" style="fill: rgb(82, 172, 98);"/>
  <path class="cls-1" d="M 217.358 147.944 C 217.319 155.246 212.15 161.514 204.988 162.944 C 203.988 163.124 202.988 163.254 203.388 161.664 C 205.238 153.664 207.178 145.794 214.298 140.554 C 214.898 140.114 215.468 139.284 216.248 139.554 C 217.028 139.824 216.658 140.904 216.738 141.614 C 216.978 143.864 217.178 146.064 217.358 147.944 Z" style="fill: rgb(82, 172, 98);"/>
  <path class="cls-1" d="M 206.038 80.434 C 206.052 81.497 205.904 82.555 205.598 83.574 C 204.308 87.024 203.598 86.974 200.358 85.574 C 192.518 82.324 192.238 75.304 191.308 68.574 C 191.138 67.314 192.048 67.144 192.998 67.754 C 194.857 68.799 196.858 69.567 198.938 70.034 C 203.798 71.504 205.978 74.674 206.038 80.434 Z" style="fill: rgb(82, 172, 98);"/>
  <path class="cls-1" d="M 259.518 82.604 C 256.758 85.114 254.358 87.394 251.848 89.544 C 247.778 93.034 242.848 91.964 238.098 92.054 C 237.178 92.054 237.188 91.394 237.558 90.814 C 240.458 86.204 243.488 81.614 249.558 81.004 C 252.798 80.684 255.958 81.714 259.518 82.604 Z" style="fill: rgb(82, 172, 98);"/>
  <path class="cls-1" d="M 206.968 92.954 C 206.831 90.442 207.71 87.98 209.408 86.124 C 211.168 84.124 212.938 84.394 214.258 86.694 C 216.948 91.394 217.748 96.094 214.398 100.884 C 213.108 102.724 211.838 102.884 210.248 101.294 C 208.021 99.105 206.828 96.073 206.968 92.954 Z" style="fill: rgb(82, 172, 98);"/>
  <path class="cls-1" d="M 276.718 137.844 C 272.218 143.674 266.658 144.404 261.218 139.994 C 260.218 139.134 259.218 138.084 258.218 137.284 C 256.758 136.204 256.638 135.554 258.448 134.714 C 261.099 133.536 263.958 132.9 266.858 132.844 C 268.685 132.709 270.46 133.488 271.598 134.924 C 272.858 136.584 274.388 137.844 276.718 137.844 Z" style="fill: rgb(82, 172, 98);"/>
  <path class="cls-1" d="M 193.078 89.524 C 194.398 89.674 196.448 89.804 198.458 90.164 C 202.078 90.814 205.508 96.214 204.938 100.064 C 204.788 101.064 204.278 101.064 203.548 101.144 C 197.458 101.694 191.128 97.204 189.328 91.144 C 188.918 89.764 189.328 89.444 190.568 89.504 C 191.158 89.554 191.758 89.524 193.078 89.524 Z" style="fill: rgb(82, 172, 98);"/>
  <path class="cls-1" d="M 267.098 124.164 C 263.448 127.994 259.608 130.284 254.958 131.094 C 252.18 131.534 249.343 131.422 246.608 130.764 C 244.748 130.344 244.748 129.764 245.838 128.464 C 248.838 124.934 252.778 123.684 257.198 123.464 C 260.511 123.452 263.82 123.685 267.098 124.164 Z" style="fill: rgb(82, 172, 98);"/>
  <path class="cls-1" d="M 194.678 118.674 C 189.998 118.214 187.138 115.024 184.318 111.774 C 183.788 111.154 184.318 110.934 184.748 110.654 C 189.288 107.754 197.258 109.864 199.948 114.594 C 200.553 115.373 200.303 116.509 199.428 116.964 C 198.039 117.972 196.392 118.565 194.678 118.674 Z" style="fill: rgb(82, 172, 98);"/>
  <path class="cls-1" d="M 245.218 164.064 C 242.218 164.144 238.648 159.124 239.928 156.314 C 240.198 155.704 240.708 155.734 241.198 155.774 C 245.978 156.124 249.688 158.474 252.778 161.964 C 253.668 162.964 252.878 163.264 251.998 163.354 C 249.808 163.614 247.618 163.834 245.218 164.064 Z" style="fill: rgb(82, 172, 98);"/>
</svg>