<?xml version="1.0" encoding="UTF-8"?> <svg xmlns="http://www.w3.org/2000/svg" height="512" viewBox="0 0 44 59" width="512"> <g id="Page-1" fill="none" fill-rule="evenodd"> <g id="024---Cake" fill-rule="nonzero" transform="translate(0 -1)"> <path id="Shape" d="m29.71 12.48c.76-1.87.39-3.91-1.19-4.7-.6864429-.34407278-1.4552471-.48986852-2.22-.421.4912671-2.07491231 2.102493-3.70034459 4.1730129-4.20980673 2.07052-.50946215 4.2520147.18275156 5.6499871 1.79280673.2319525.27864434.5965536.40991857.9528939.3430884s.6485975-.3212955.7638214-.66505138.0353642-.72295149-.2087153-.99103702c-1.8338584-2.11536997-4.6736289-3.0650792-7.4111022-2.47850749-2.7374734.58657172-4.9387911 2.61645938-5.7448978 5.29750749-.3988323-.66194435-.9758007-1.19836901-1.665-1.548-1.7-.85-3.72.27-4.71 2.24-.6404797 1.34717902-.8633653 2.8551395-.64 4.33v.01l-17.46 5.55v31.97l22 11 22-11v-31.97z" fill="#e57e25"></path> <path id="Shape" d="m22 29.02v14.98c-4.1704521-.903264-8.2605856-2.1440158-12.23-3.71-3.51669941-1.4187346-6.8079333-3.3422704-9.77-5.71v-12.46c2.01718652 1.1762603 4.24025986 1.9568815 6.55 2.3 2.31204932.3367238 4.5952544.8481885 6.83 1.53 2.87 1.03 5.54 2.86 8.58 3.08.014096.0014964.0282665-.0020463.04-.01z" fill="#f9eab0"></path> <path id="Shape" d="m22 44v11l-22-11v-9.42c2.9620667 2.3677296 6.25330059 4.2912654 9.77 5.71 3.9694144 1.5659842 8.0595479 2.806736 12.23 3.71z" fill="#cf976a"></path> <path id="Shape" d="m22 55v5l-22-11v-5z" fill="#f29c1f"></path> <path id="Shape" d="m44 17.03v3.74c-6.75 3.82-14.28 7.23-22 8.25v-4.99z" fill="#805333"></path> <path id="Shape" d="m44 20.77v12.12h-.06c-4.02 2.95-9.18 3.76-13.7 5.89-2.9123284 1.4635838-5.6724775 3.2121248-8.24 5.22v-14.98c7.72-1.02 15.25-4.43 22-8.25z" fill="#f3d55b"></path> <path id="Shape" d="m44 32.89v11.11l-22 11v-11c2.5675225-2.0078752 5.3276716-3.7564162 8.24-5.22 4.52-2.13 9.68-2.94 13.7-5.89z" fill="#805333"></path> <path id="Shape" d="m44 17.03-22 7-22-7 17.46-5.55v-.01l12.25 1.01z" fill="#cb8252"></path> <path id="Shape" d="m22 24.03v4.99c-.0117335.0079537-.025904.0114964-.04.01-3.04-.22-5.71-2.05-8.58-3.08-2.2347456-.6818115-4.51795068-1.1932762-6.83-1.53-2.30974014-.3431185-4.53281348-1.1237397-6.55-2.3v-5.09z" fill="#cf976a"></path> <path id="Shape" d="m24.44 16.75c2.17052-.4934814 4.0243999-1.8957285 5.09-3.85.0683949-.1362513.1285042-.2765063.18-.42.76-1.87.39-3.91-1.19-4.7-1.1019053-.54264727-2.3836972-.58634472-3.52-.12-.3033347-1.19004715-1.1000443-2.19411951-2.19-2.76-1.7-.85-3.72.27-4.71 2.24-.6404797 1.34717902-.8633653 2.8551395-.64 4.33v.01c.2424741 1.5729595.8981331 3.0533683 1.9 4.29z" fill="#c03a2b"></path> <path id="Shape" d="m29 18.028c-4.2131429.0354968-8.4000926-.6653739-12.372-2.071-.5130725-.2051738-.7626738-.7874275-.5575-1.3005s.7874275-.7626738 1.3005-.5575c3.7384875 1.2994101 7.6711929 1.951761 11.629 1.929.3572656 0 .6873926.1905989.8660254.5s.1786328.6905989 0 1-.5087598.5-.8660254.5z" fill="#603e26"></path> <path id="Shape" d="m25.246 8.418c-.0637525-.0001355-.1273562-.00616111-.19-.018-.2604455-.0501204-.4903124-.20165248-.6390298-.4212591-.1487173-.21960661-.2041023-.48929764-.1539702-.7497409.5585139-2.8896158 2.7153266-5.2081118 5.5571058-5.97368878s5.8713871.1556943 7.8058942 2.37368878c.2440795.26808553.3239392.64728114.2087153.99103702s-.4074811.59822121-.7638214.66505138-.7209414-.06444406-.9528939-.3430884c-1.4321533-1.64122573-3.6744479-2.32274684-5.7776721-1.75606072s-3.6995925 2.28248453-4.1133279 4.42106072c-.0905386.47040774-.5019588.81053189-.981.811z" fill="#24ae5f"></path> <g fill="#f3d55b"> <path id="Shape" d="m5 30c-.26519481-.0000566-.51950727-.1054506-.707-.293l-1-1c-.37897221-.3923789-.37355237-1.0160848.01218142-1.4018186.3857338-.3857338 1.00943969-.3911536 1.40181858-.0121814l1 1c.28590792.2859943.37142191.7160366.21667798 1.0896546-.15474393.3736179-.51928208.6172591-.92367798.6173454z"></path> <path id="Shape" d="m8 35c-.26519481-.0000566-.51950727-.1054506-.707-.293l-1-1c-.37897221-.3923789-.37355237-1.0160848.01218142-1.4018186.3857338-.3857338 1.00943969-.3911536 1.40181858-.0121814l1 1c.28590792.2859943.37142191.7160366.21667798 1.0896546-.15474393.3736179-.51928208.6172591-.92367798.6173454z"></path> <path id="Shape" d="m18 34c-.2651948-.0000566-.5195073-.1054506-.707-.293l-1-1c-.3789722-.3923789-.3735524-1.0160848.0121814-1.4018186s1.0094397-.3911536 1.4018186-.0121814l1 1c.2859079.2859943.3714219.7160366.216678 1.0896546-.1547439.3736179-.5192821.6172591-.923678.6173454z"></path> <path id="Shape" d="m10 31c-.4043959-.0000863-.76893405-.2437275-.92367798-.6173454-.15474393-.373618-.06922994-.8036603.21667798-1.0896546l1-1c.3923789-.3789722 1.0160848-.3735524 1.4018186.0121814s.3911536 1.0094397.0121814 1.4018186l-1 1c-.1874927.1875494-.4418052.2929434-.707.293z"></path> <path id="Shape" d="m12 38c-.4043959-.0000863-.7689341-.2437275-.923678-.6173454-.1547439-.373618-.0692299-.8036603.216678-1.0896546l1-1c.3923789-.3789722 1.0160848-.3735524 1.4018186.0121814s.3911536 1.0094397.0121814 1.4018186l-1 1c-.1874927.1875494-.4418052.2929434-.707.293z"></path> <path id="Shape" d="m18 39c-.2651948-.0000566-.5195073-.1054506-.707-.293l-1-1c-.3789722-.3923789-.3735524-1.0160848.0121814-1.4018186s1.0094397-.3911536 1.4018186-.0121814l1 1c.2859079.2859943.3714219.7160366.216678 1.0896546-.1547439.3736179-.5192821.6172591-.923678.6173454z"></path> </g> <path id="Shape" d="m26 34c-.4043959-.0000863-.7689341-.2437275-.923678-.6173454-.1547439-.373618-.0692299-.8036603.216678-1.0896546l1-1c.3923789-.3789722 1.0160848-.3735524 1.4018186.0121814s.3911536 1.0094397.0121814 1.4018186l-1 1c-.1874927.1875494-.4418052.2929434-.707.293z" fill="#e57e25"></path> <path id="Shape" d="m31 36c-.2651948-.0000566-.5195073-.1054506-.707-.293l-1-1c-.3789722-.3923789-.3735524-1.0160848.0121814-1.4018186s1.0094397-.3911536 1.4018186-.0121814l1 1c.2859079.2859943.3714219.7160366.216678 1.0896546-.1547439.3736179-.5192821.6172591-.923678.6173454z" fill="#e57e25"></path> <path id="Shape" d="m34 32c-.2651948-.0000566-.5195073-.1054506-.707-.293l-1-1c-.3789722-.3923789-.3735524-1.0160848.0121814-1.4018186s1.0094397-.3911536 1.4018186-.0121814l1 1c.2859079.2859943.3714219.7160366.216678 1.0896546-.1547439.3736179-.5192821.6172591-.923678.6173454z" fill="#e57e25"></path> <path id="Shape" d="m38 33c-.4043959-.0000863-.7689341-.2437275-.923678-.6173454-.1547439-.373618-.0692299-.8036603.216678-1.0896546l1-1c.3923789-.3789722 1.0160848-.3735524 1.4018186.0121814s.3911536 1.0094397.0121814 1.4018186l-1 1c-.1874927.1875494-.4418052.2929434-.707.293z" fill="#e57e25"></path> <path id="Shape" d="m40 29c-.2651948-.0000566-.5195073-.1054506-.707-.293l-1-1c-.3789722-.3923789-.3735524-1.0160848.0121814-1.4018186s1.0094397-.3911536 1.4018186-.0121814l1 1c.2859079.2859943.3714219.7160366.216678 1.0896546-.1547439.3736179-.5192821.6172591-.923678.6173454z" fill="#e57e25"></path> </g> </g> </svg> 